<svg xmlns="http://www.w3.org/2000/svg" enable-background="new 0 0 32 32" viewBox="0 0 32 32"><path d="M29.31738,0.80952c-0.37061-0.28369-0.85059-0.37891-1.30176-0.2583L16.396,3.67133c-0.65527,0.17627-1.11084,0.77002-1.11084,1.44873v3.06372L13.9585,6.90278c-0.43311-0.41846-1.07324-0.53809-1.62793-0.30176c-0.5542,0.23535-0.91406,0.77881-0.91406,1.38086v2.83936H3.59521c-0.82861,0-1.5,0.67139-1.5,1.5v7.35742c0,0.82861,0.67139,1.5,1.5,1.5h7.82129v2.83936c0,0.60205,0.35986,1.14551,0.91406,1.38086c0.18896,0.08008,0.38818,0.11914,0.58545,0.11914c0.38184,0,0.75732-0.14551,1.04248-0.4209l1.32666-1.28101v3.06372c0,0.67871,0.45557,1.27246,1.11084,1.44873l11.61963,3.12012c0.12842,0.03418,0.25928,0.05127,0.38916,0.05127c0.32666,0,0.64795-0.10645,0.9126-0.30957c0.37061-0.28418,0.5874-0.72412,0.5874-1.19043v-28C29.90479,1.53364,29.68799,1.0937,29.31738,0.80952z M12.9165,18.17866H5.09521v-4.35742h7.82129c0.82861,0,1.5-0.67139,1.5-1.5v-0.80566l4.64404,4.48438l-4.64404,4.48437v-0.80566C14.4165,18.85004,13.74512,18.17866,12.9165,18.17866z M26.90479,28.04389l-8.61963-2.31445v-4.81012l3.97705-3.84027c0.29248-0.28271,0.45801-0.67236,0.45801-1.0791c0-0.40674-0.16553-0.79639-0.45801-1.0791l-3.97705-3.84027V6.27045L26.90479,3.956V28.04389z"/></svg>